<svg xmlns="http://www.w3.org/2000/svg" viewBox="0 0 669.9 233.9"><path d="M11.1 11.1V0H0v33.3h11.1V22.2zM0 44.4h11.1v11.1H0zM0 66.5h11.1v11.1H0zM0 88.7h11.1v11.1H0zM11.1 166.3v-11.1H0v33.3h11.1v-11.1zM0 210.7v22.2h11.1v-33.3H0zM11.1 33.3h11.1v11.1H11.1zM11.1 77.6h11.1v11.1H11.1zM11.1 188.5h11.1v11.1H11.1zM33.3 22.2V11.1h22.1V0H22.2v33.3h11.1zM22.2 44.4h11.1v11.1H22.2zM22.2 66.5h11.1v11.1H22.2zM22.2 99.8V122h11.1V88.7H22.2z"/><path d="M22.2 133.1H11.1v-22.2H0v33.2h33.3v-11zM22.2 155.2h11.1v11.1H22.2zM22.2 177.4h11.1v11.1H22.2zM22.2 199.6h11.1v11.1H22.2zM33.3 55.4h11.1v11.1H33.3zM33.3 77.6h11.1v11.1H33.3zM33.3 144.1h11.1v11.1H33.3zM33.3 221.8H22.2v11.1h33.2v-11.1H44.3v-11.1h-11zM44.3 22.2h11.1v11.1H44.3z"/><path d="M44.3 44.4h11.1v11.1H44.3zM44.3 66.5h11.1v11.1H44.3zM44.3 88.7h11.1v11.1H44.3zM44.3 122v22.1h11.1v-33.2H44.3zM44.3 177.4v33.3h11.1v-55.5H44.3v11.1zM55.4 99.8h11.1v11.1H55.4zM66.5 88.7h11.1v11.1H66.5zM66.5 133.1v11h11.1v-33.2H66.5V122zM88.7 88.7h11.1v11.1H88.7zM88.7 133.1h11.1v11.1H88.7zM122 99.8V88.7h-11.1v22.2H88.7V122H122v-11.1zM110.9 133.1H122v11.1h-11.1zM122 122h11.1v11.1H122zM144.1 55.4V44.3h-11v33.3h11V66.5zM144.1 110.9V88.7h-11V122h11zM133.1 144.1v22.2h11v-33.2h-11zM144.1 199.6v-22.2h-11v33.3h11zM144.1 77.6h11.1v11.1h-11.1zM144.1 122h11.1v11.1h-11.1zM144.1 221.8h-11v11.1h33.2v-11.1h-11.1zM155.2 22.2h-11.1V0h-11v33.3h33.2V22.2zM155.2 44.4h11.1v11.1h-11.1zM155.2 66.5h11.1v11.1h-11.1zM155.2 88.7h11.1v11.1h-11.1zM155.2 110.9h11.1V122h-11.1zM166.3 144.1h22.2v-11h-33.3v11zM155.2 199.6h11.1v11.1h-11.1zM166.3 0h-11.1v11.1h33.3V0h-11.1zM166.3 33.3h11.1v11.1h-11.1zM166.3 55.4h11.1v11.1h-11.1zM166.3 99.8h11.1v11.1h-11.1zM166.3 177.4v-22.2h-11.1v33.3h33.3v-11.1h-11.1zM177.4 22.2h11.1v11.1h-11.1zM177.4 44.4h11.1v11.1h-11.1zM177.4 66.5h11.1v11.1h-11.1zM177.4 88.7h11.1v11.1h-11.1zM177.4 110.9h11.1V122h-11.1zM177.4 155.2h11.1v11.1h-11.1zM177.4 210.7v22.2h11.1v-33.3h-11.1zM252.6 34.9c0-6.7 3.2-10.4 8.9-10.4 5 0 7.9 3 7.9 8.6v25.7h11V31.4c0-8.8-5-16.1-15.8-16.1-5.5 0-9.4 2-12 5.2V0h-11v58.9h11v-24zM327.8 46.7V31c0-8.1-4.8-15.6-17.4-15.6-12.4 0-18.1 7.2-19 13.6l10.3 1c.5-2.5 2.1-6.3 8.2-6.3 5.8 0 7.1 3.8 7.1 5.7.1 1.4-.9 2.6-2.3 2.8h-.2l-11.4 1.9c-7.5 1.3-12.9 5.2-12.9 13.2 0 6.4 5 12.5 15 12.5 5.8 0 10.2-2.3 13-6.2 1.3 4.4 6 5.2 9 5.2h5.4v-9.1h-1.7c-2.4.1-3.1-1-3.1-3zm-10.6-5.6c0 6.1-4.3 10.3-9.8 10.3-4.3 0-6.3-2-6.3-5.1 0-2.6 1.4-4.8 5.6-5.5l10.5-1.7v2zM364.5 32.2L353 34.1c-7.5 1.3-12.9 5.2-12.9 13.2 0 6.4 5 12.5 15 12.5 5.8 0 10.2-2.3 13-6.2 1.3 4.4 6 5.2 9 5.2h5.4v-9.1h-1.7c-2.4 0-3-1.1-3-3.1V31c0-8.1-4.8-15.6-17.4-15.6-12.4 0-18.1 7.2-19 13.6l10.3 1c.5-2.5 2.1-6.3 8.2-6.3 5.8 0 7.1 3.8 7.1 5.7.1 1.4-.9 2.6-2.3 2.8h-.2zm2.6 7v1.9c0 6.1-4.3 10.3-9.8 10.3-4.3 0-6.3-2-6.3-5.1 0-2.6 1.4-4.8 5.6-5.5l10.5-1.6zM415.2 33.2L408 32c-3.9-.7-6-1.5-6-4.2 0-2 1.6-4.4 7.5-4.4 5.5 0 8.1 2.8 8.9 6.2l10.1-1.2c-.9-6.2-5.4-13.1-18.6-13.1-12.4 0-18.4 6.1-18.4 13.2 0 8.9 7.3 11.5 13.8 12.6l6.6 1.1c4 .7 6.4 1.8 6.4 4.4 0 2.8-1.8 5.1-7.8 5.1-5.9 0-9-2.4-9.5-6.9L390 46c.5 7 5.9 13.9 20 13.9 13.2 0 19.2-5.9 19.2-14.1 0-8-5.3-11.1-14-12.6zM271.9 130.2l-7.2-26.9h-7.5l-6.9 27.3-4.2-27.3h-10l7.7 42.6h9.6l7.7-28.5 7.6 28.5h9.1l7.6-42.6h-9.3zM311.9 102.3c-12.9 0-21.1 9.3-21.1 22.3 0 13.9 7.4 22.3 21.4 22.3 8.4 0 16.1-3.7 18.5-12.7l-9.6-2.3c-1.2 3.4-3.4 6.3-8.9 6.3-6.4 0-9.9-3.6-10.7-10.7h30.3v-4c.1-12.9-7.8-21.2-19.9-21.2zm-10.1 17.9c1.1-6.3 4.6-9.3 10.1-9.3 5 0 8.4 2.8 9 9.3h-19.1zM365.2 102.3c-5-.2-9.8 2.1-12.8 6.1V87h-11v58.9h10.5v-5.6c2.9 4.1 7.3 6.6 13.3 6.6 11.8 0 19-9.6 19-22.6 0-13.2-7.3-22-19-22zm-2.5 35.3c-6.6 0-10.5-5.6-10.5-13 0-7.7 3.9-13.1 10.5-13.1s10.2 5.5 10.2 13.1-3.5 13-10.2 13zM266.4 207.2l-7.2-1.2c-3.9-.7-6-1.5-6-4.2 0-2 1.6-4.4 7.5-4.4 5.5 0 8.1 2.8 8.9 6.2l10.1-1.2c-.9-6.2-5.4-13.1-18.6-13.1-12.4 0-18.4 6.1-18.4 13.2 0 8.9 7.3 11.5 13.8 12.6l6.6 1.1c4 .7 6.4 1.9 6.4 4.4 0 2.8-1.8 5.1-7.8 5.1-5.9 0-9-2.4-9.5-6.9l-11 1.2c.5 7 5.9 13.9 20 13.9 13.2 0 19.2-5.9 19.2-14.1 0-8-5.3-11.1-14-12.6zM309.9 189.3c-13.5 0-21.6 9.4-21.6 22.3s7.8 22.3 21.6 22.3c13.5 0 21.6-9.5 21.6-22.3s-7.9-22.3-21.6-22.3zm0 35.7c-7.2 0-10.4-5.8-10.4-13.4s3.2-13.4 10.4-13.4 10.4 5.7 10.4 13.4-3.1 13.4-10.4 13.4zM364 174h-25.3v8.9H353v41h-14.3v9h39.7v-9H364zM413.4 214.3c0 6.6-3 10.3-8.5 10.3-4.7 0-7.5-3-7.5-8.6v-25.7h-11v27.5c0 8.8 4.9 16.1 15.4 16.1 5.6 0 9.6-2.3 12.1-5.7v4.7h10.5v-42.5h-11v23.9zM456.4 218.6v-19.5H474v-8.8h-17.6v-13h-11v13H433v8.8h12.4v21.1c0 7.9 3.7 12.6 13.4 12.6h15.7v-9.2h-13.6c-3.7.1-4.5-1.4-4.5-5zM497.2 171h11.9v13h-11.9zM509 190.3h-25.3v8.8H498v24.8h-14.3v9h39.7v-9H509zM550.9 189.3c-13.5 0-21.6 9.4-21.6 22.3s7.8 22.3 21.6 22.3c13.5 0 21.6-9.5 21.6-22.3s-7.9-22.3-21.6-22.3zm0 35.7c-7.2 0-10.4-5.8-10.4-13.4s3.2-13.4 10.4-13.4 10.4 5.7 10.4 13.4-3.1 13.4-10.4 13.4zM605.1 189.3c-5.9 0-9.9 2.3-12.5 5.8v-4.8h-10.5v42.6h11v-24c0-6.7 3.2-10.4 8.9-10.4 5 0 7.9 3 7.9 8.6v25.7h11v-27.4c0-8.9-4.9-16.1-15.8-16.1zM655.9 207.2l-7.2-1.2c-3.9-.7-6-1.5-6-4.2 0-2 1.6-4.4 7.5-4.4 5.5 0 8.1 2.8 8.9 6.2l10.1-1.2c-.9-6.2-5.4-13.1-18.6-13.1-12.4 0-18.4 6.1-18.4 13.2 0 8.9 7.3 11.5 13.8 12.6l6.6 1.1c4 .7 6.4 1.9 6.4 4.4 0 2.8-1.8 5.1-7.8 5.1-5.9 0-9-2.4-9.5-6.9l-11 1.2c.5 7 5.9 13.9 20 13.9 13.2 0 19.2-5.9 19.2-14.1 0-8-5.3-11.1-14-12.6z"/></svg>